<?xml version="1.0" encoding="utf-8"?>
<!-- Generator: Adobe Illustrator 26.2.1, SVG Export Plug-In . SVG Version: 6.00 Build 0)  -->
<svg version="1.1" id="Réteg_1" xmlns="http://www.w3.org/2000/svg" xmlns:xlink="http://www.w3.org/1999/xlink" x="0px" y="0px"
	 viewBox="0 0 413.62 568.11" style="enable-background:new 0 0 413.62 568.11;" xml:space="preserve">
<style type="text/css">
	.st0{fill:#6B370E;}
</style>
<g>
	<path class="st0" d="M179.97,271.12c-9.97,3.47-18.06,6.7-26.38,9.1c-23.87,6.89-40.69,21.81-51.52,43.93
		c-4.2,8.57-8.2,17.29-13.09,25.46c-12.12,20.23-31.04,29.92-53.84,32.32c-3.21,0.34-7.98-2.44-10.09-5.24
		c-11.09-14.68-11.8-30.98-5.49-47.79c15.61-41.58,69.71-79.66,114.18-80.28C151.8,248.36,167.45,253.7,179.97,271.12z"/>
	<path class="st0" d="M133.87,15.28c-1.59,9.93-2.42,18.22-4.29,26.28c-6.57,28.26,0.69,52.98,18.74,74.91
		c18.66,22.67,25.02,47.5,15.17,75.93c-2.37,6.83-6.05,9.61-13.11,10.14c-22.66,1.71-38.58-9.69-49.31-27.54
		C78.15,136.88,73.69,95.91,88.28,53.8C95.26,33.67,108.74,19.08,133.87,15.28z"/>
	<path class="st0" d="M358.12,153.48c-4.56,5.3-8.44,10.89-13.35,15.35c-22.31,20.28-31.02,45.39-28.69,75.16
		c0.83,10.58,0.83,21.48-0.81,31.93c-2.94,18.76-14.46,32.62-29.63,43.19c-2.91,2.03-8.84,2.07-12.31,0.57
		c-17.5-7.57-26.55-22.35-27.48-40.48c-2.66-52.17,18.37-93.53,61.05-123.29C322.91,144.75,341.65,144.64,358.12,153.48z"/>
	<path class="st0" d="M176.55,196.33c1.79-8.97,2.98-15.69,4.49-22.33c4.71-20.76,1.58-40.35-13.35-55.57
		c-27.93-28.48-30.09-61.62-21.96-97.92c1.94-8.67,5.8-10.27,13.35-9.22c16.54,2.3,29.54,10.87,38.92,23.97
		c28.59,39.97,32.7,83.03,13.21,127.93C204.73,178.13,193.83,189.71,176.55,196.33z"/>
	<path class="st0" d="M294.81,327.47c7.05-6.1,12-10.14,16.68-14.48c17.66-16.37,24.65-36.56,19.89-60.13
		c-7.91-39.16,11.57-66.81,37.93-91.46c1.96-1.83,8.77-1.1,11.48,0.92c16.78,12.5,22.39,30.9,21.94,50.52
		c-1.04,44.98-20.28,80.8-57.99,105.88C330.98,327.87,315.59,331.73,294.81,327.47z"/>
	<path class="st0" d="M41.7,394.53c9.51-2.76,17.19-4.85,24.78-7.22c19.97-6.25,34.21-19.14,40.18-39.11
		c11.69-39.1,41.77-55.44,77.75-64.68c2.8-0.72,8.6,2.65,10.05,5.59c7.21,14.58,5.71,29.73,0.19,44.5
		C178.75,376.15,129.4,410.14,84,409.79C68.86,409.68,54.5,406.75,41.7,394.53z"/>
</g>
<g>
	<g>
		<path d="M51.3,557.71c-8.05,0-14.29-1.68-18.73-5.05c-4.44-3.37-7.53-7.9-9.26-13.61c-1.73-5.7-2.6-12.07-2.6-19.08v-40.13
			c0-7.67,0.86-14.36,2.6-20.07c1.73-5.71,4.82-10.12,9.26-13.26c4.44-3.13,10.69-4.7,18.73-4.7c7.11,0,12.75,1.31,16.91,3.93
			c4.16,2.62,7.16,6.36,8.98,11.23c1.82,4.87,2.74,10.71,2.74,17.54v8.98H64.91v-8c0-4.21-0.21-7.93-0.63-11.16
			c-0.42-3.23-1.57-5.73-3.44-7.51c-1.87-1.78-5.01-2.67-9.4-2.67c-4.49,0-7.77,0.96-9.82,2.88c-2.06,1.92-3.39,4.63-4,8.14
			c-0.61,3.51-0.91,7.6-0.91,12.28v45.04c0,5.71,0.47,10.22,1.4,13.54c0.93,3.32,2.48,5.68,4.63,7.09c2.15,1.4,5.05,2.11,8.7,2.11
			c4.3,0,7.39-0.96,9.26-2.88c1.87-1.92,3.04-4.56,3.51-7.93c0.47-3.37,0.7-7.3,0.7-11.79v-8.42h15.01v8.42
			c0,6.92-0.84,13.03-2.53,18.31c-1.68,5.29-4.58,9.4-8.7,12.35C64.58,556.24,58.78,557.71,51.3,557.71z"/>
		<path d="M124.13,557.71c-7.67,0-13.8-1.5-18.38-4.49c-4.58-2.99-7.86-7.27-9.82-12.84c-1.96-5.57-2.95-12.09-2.95-19.58v-43.08
			c0-7.48,1-13.91,3.02-19.29c2.01-5.38,5.28-9.49,9.82-12.35c4.54-2.85,10.64-4.28,18.31-4.28c7.67,0,13.75,1.45,18.24,4.35
			c4.49,2.9,7.74,7.02,9.75,12.35c2.01,5.33,3.02,11.74,3.02,19.22v43.22c0,7.39-1.01,13.85-3.02,19.36
			c-2.01,5.52-5.26,9.8-9.75,12.84C137.88,556.19,131.8,557.71,124.13,557.71z M124.13,545.22c4.21,0,7.39-0.86,9.54-2.6
			c2.15-1.73,3.6-4.16,4.35-7.3c0.75-3.13,1.12-6.81,1.12-11.02V474.5c0-4.21-0.38-7.83-1.12-10.88c-0.75-3.04-2.2-5.38-4.35-7.02
			c-2.15-1.64-5.33-2.46-9.54-2.46c-4.21,0-7.42,0.82-9.61,2.46c-2.2,1.64-3.67,3.98-4.42,7.02c-0.75,3.04-1.12,6.67-1.12,10.88
			v49.81c0,4.21,0.37,7.88,1.12,11.02c0.75,3.13,2.22,5.57,4.42,7.3C116.71,544.36,119.92,545.22,124.13,545.22z"/>
		<path d="M170.71,556.45V442.79h43.92v11.37h-28.06v37.89h21.75v11.23h-21.75v53.18H170.71z"/>
		<path d="M225.58,556.45V442.79h43.92v11.37h-28.06v37.89h21.75v11.23h-21.75v53.18H225.58z"/>
		<path d="M280.44,556.45V442.79h44.06v11.79H296.3v37.61h22.87v11.23H296.3v41.68h28.49v11.37H280.44z"/>
		<path d="M366.6,557.71c-7.67,0-13.8-1.5-18.38-4.49c-4.58-2.99-7.86-7.27-9.82-12.84c-1.96-5.57-2.95-12.09-2.95-19.58v-43.08
			c0-7.48,1-13.91,3.02-19.29c2.01-5.38,5.28-9.49,9.82-12.35c4.54-2.85,10.64-4.28,18.31-4.28c7.67,0,13.75,1.45,18.24,4.35
			c4.49,2.9,7.74,7.02,9.75,12.35c2.01,5.33,3.02,11.74,3.02,19.22v43.22c0,7.39-1.01,13.85-3.02,19.36
			c-2.01,5.52-5.26,9.8-9.75,12.84C380.35,556.19,374.27,557.71,366.6,557.71z M366.6,545.22c4.21,0,7.39-0.86,9.54-2.6
			c2.15-1.73,3.6-4.16,4.35-7.3c0.75-3.13,1.12-6.81,1.12-11.02V474.5c0-4.21-0.38-7.83-1.12-10.88c-0.75-3.04-2.2-5.38-4.35-7.02
			c-2.15-1.64-5.33-2.46-9.54-2.46c-4.21,0-7.42,0.82-9.61,2.46c-2.2,1.64-3.67,3.98-4.42,7.02c-0.75,3.04-1.12,6.67-1.12,10.88
			v49.81c0,4.21,0.37,7.88,1.12,11.02c0.75,3.13,2.22,5.57,4.42,7.3C359.18,544.36,362.39,545.22,366.6,545.22z"/>
	</g>
</g>
</svg>
