<?xml version="1.0" encoding="utf-8"?>
<!-- Generator: Adobe Illustrator 26.2.1, SVG Export Plug-In . SVG Version: 6.00 Build 0)  -->
<svg version="1.1" id="Réteg_1" xmlns="http://www.w3.org/2000/svg" xmlns:xlink="http://www.w3.org/1999/xlink" x="0px" y="0px"
	 viewBox="0 0 627.42 224.05" style="enable-background:new 0 0 627.42 224.05;" xml:space="preserve">
<style type="text/css">
	.st0{fill:#6B3812;}
	.st1{fill:#020203;}
</style>
<g>
	<path class="st0" d="M92.36,146.14c-5.6,1.95-10.15,3.76-14.82,5.11c-13.41,3.87-22.86,12.25-28.94,24.68
		c-2.36,4.81-4.61,9.71-7.35,14.3c-6.81,11.37-17.44,16.81-30.25,18.16c-1.8,0.19-4.48-1.37-5.67-2.94
		c-6.23-8.25-6.63-17.41-3.08-26.85c8.77-23.36,39.16-44.75,64.15-45.1C76.54,133.35,85.33,136.35,92.36,146.14z"/>
	<path class="st0" d="M66.46,2.4c-0.89,5.58-1.36,10.24-2.41,14.76c-3.69,15.88,0.39,29.77,10.53,42.09
		c10.48,12.74,14.06,26.69,8.52,42.66c-1.33,3.84-3.4,5.4-7.37,5.7c-12.73,0.96-21.67-5.44-27.7-15.47
		C35.16,70.72,32.65,47.7,40.85,24.04C44.77,12.73,52.34,4.54,66.46,2.4z"/>
	<path class="st0" d="M192.45,80.04c-2.56,2.98-4.74,6.12-7.5,8.62c-12.53,11.39-17.43,25.5-16.12,42.23
		c0.47,5.94,0.47,12.07-0.46,17.94c-1.65,10.54-8.12,18.33-16.65,24.26c-1.63,1.14-4.97,1.16-6.92,0.32
		c-9.83-4.25-14.92-12.56-15.44-22.74c-1.49-29.31,10.32-52.55,34.3-69.27C172.67,75.14,183.2,75.08,192.45,80.04z"/>
	<path class="st0" d="M90.44,104.12c1.01-5.04,1.67-8.81,2.52-12.55c2.65-11.66,0.89-22.67-7.5-31.22
		c-15.69-16-16.91-34.62-12.34-55.01c1.09-4.87,3.26-5.77,7.5-5.18c9.29,1.29,16.6,6.11,21.87,13.47
		c16.06,22.46,18.37,46.65,7.42,71.87C106.27,93.89,100.15,100.4,90.44,104.12z"/>
	<path class="st0" d="M156.88,177.8c3.96-3.43,6.74-5.7,9.37-8.14c9.92-9.2,13.85-20.54,11.17-33.78c-4.44-22,6.5-37.54,21.31-51.38
		c1.1-1.03,4.93-0.62,6.45,0.52c9.43,7.02,12.58,17.36,12.33,28.38c-0.58,25.27-11.39,45.4-32.58,59.49
		C177.2,178.02,168.56,180.19,156.88,177.8z"/>
	<path class="st0" d="M14.68,215.47c5.34-1.55,9.66-2.72,13.92-4.06c11.22-3.51,19.22-10.75,22.57-21.97
		c6.57-21.97,23.47-31.15,43.68-36.34c1.57-0.4,4.83,1.49,5.65,3.14c4.05,8.19,3.21,16.7,0.11,25c-8.93,23.9-36.66,43-62.17,42.8
		C29.94,223.98,21.87,222.34,14.68,215.47z"/>
</g>
<g>
	<g>
		<path class="st1" d="M281.11,169.98c-8.05,0-14.29-1.68-18.73-5.05s-7.53-7.9-9.26-13.61c-1.73-5.7-2.6-12.07-2.6-19.08V92.11
			c0-7.67,0.86-14.36,2.6-20.07c1.73-5.71,4.82-10.12,9.26-13.26c4.44-3.13,10.69-4.7,18.73-4.7c7.11,0,12.75,1.31,16.91,3.93
			c4.16,2.62,7.16,6.36,8.98,11.23c1.82,4.87,2.74,10.71,2.74,17.54v8.98h-15.02v-8c0-4.21-0.21-7.93-0.63-11.16
			c-0.42-3.23-1.57-5.73-3.44-7.51s-5.01-2.67-9.4-2.67c-4.49,0-7.77,0.96-9.82,2.88c-2.06,1.92-3.39,4.63-4,8.14
			c-0.61,3.51-0.91,7.6-0.91,12.28v45.04c0,5.71,0.47,10.22,1.4,13.54s2.48,5.68,4.63,7.09c2.15,1.4,5.05,2.11,8.7,2.11
			c4.3,0,7.39-0.96,9.26-2.88s3.04-4.56,3.51-7.93s0.7-7.3,0.7-11.79v-8.42h15.01v8.42c0,6.92-0.84,13.03-2.53,18.31
			c-1.68,5.29-4.58,9.4-8.7,12.35C294.39,168.51,288.59,169.98,281.11,169.98z"/>
		<path class="st1" d="M353.94,169.98c-7.67,0-13.8-1.5-18.38-4.49c-4.58-2.99-7.86-7.27-9.82-12.84
			c-1.96-5.57-2.95-12.09-2.95-19.58V89.99c0-7.48,1-13.91,3.02-19.29c2.01-5.38,5.28-9.49,9.82-12.35
			c4.54-2.85,10.64-4.28,18.31-4.28c7.67,0,13.75,1.45,18.24,4.35c4.49,2.9,7.74,7.02,9.75,12.35c2.01,5.33,3.02,11.74,3.02,19.22
			v43.22c0,7.39-1.01,13.85-3.02,19.36c-2.01,5.52-5.26,9.8-9.75,12.84C367.69,168.46,361.61,169.98,353.94,169.98z M353.94,157.49
			c4.21,0,7.39-0.86,9.54-2.6c2.15-1.73,3.6-4.16,4.35-7.3c0.75-3.13,1.12-6.81,1.12-11.02v-49.8c0-4.21-0.38-7.83-1.12-10.88
			c-0.75-3.04-2.2-5.38-4.35-7.02c-2.15-1.64-5.33-2.46-9.54-2.46s-7.42,0.82-9.61,2.46c-2.2,1.64-3.67,3.98-4.42,7.02
			c-0.75,3.04-1.12,6.67-1.12,10.88v49.81c0,4.21,0.37,7.88,1.12,11.02c0.75,3.13,2.22,5.57,4.42,7.3
			C346.52,156.63,349.73,157.49,353.94,157.49z"/>
		<path class="st1" d="M400.52,168.72V55.06h43.92v11.37h-28.06v37.89h21.75v11.23h-21.75v53.18h-15.86V168.72z"/>
		<path class="st1" d="M455.39,168.72V55.06h43.92v11.37h-28.06v37.89H493v11.23h-21.75v53.18h-15.86V168.72z"/>
		<path class="st1" d="M510.25,168.72V55.06h44.06v11.79h-28.2v37.61h22.87v11.23h-22.87v41.68h28.49v11.37h-44.35V168.72z"/>
		<path class="st1" d="M596.41,169.98c-7.67,0-13.8-1.5-18.38-4.49s-7.86-7.27-9.82-12.84s-2.95-12.09-2.95-19.58V89.99
			c0-7.48,1-13.91,3.02-19.29c2.01-5.38,5.28-9.49,9.82-12.35c4.54-2.85,10.64-4.28,18.31-4.28c7.67,0,13.75,1.45,18.24,4.35
			s7.74,7.02,9.75,12.35c2.01,5.33,3.02,11.74,3.02,19.22v43.22c0,7.39-1.01,13.85-3.02,19.36c-2.01,5.52-5.26,9.8-9.75,12.84
			C610.16,168.46,604.08,169.98,596.41,169.98z M596.41,157.49c4.21,0,7.39-0.86,9.54-2.6c2.15-1.73,3.6-4.16,4.35-7.3
			c0.75-3.13,1.12-6.81,1.12-11.02v-49.8c0-4.21-0.38-7.83-1.12-10.88c-0.75-3.04-2.2-5.38-4.35-7.02
			c-2.15-1.64-5.33-2.46-9.54-2.46s-7.42,0.82-9.61,2.46c-2.2,1.64-3.67,3.98-4.42,7.02c-0.75,3.04-1.12,6.67-1.12,10.88v49.81
			c0,4.21,0.37,7.88,1.12,11.02c0.75,3.13,2.22,5.57,4.42,7.3C588.99,156.63,592.2,157.49,596.41,157.49z"/>
	</g>
</g>
</svg>
