<?xml version="1.0" encoding="utf-8"?>
<!-- Generator: Adobe Illustrator 26.2.1, SVG Export Plug-In . SVG Version: 6.00 Build 0)  -->
<svg version="1.1" id="Réteg_1" xmlns="http://www.w3.org/2000/svg" xmlns:xlink="http://www.w3.org/1999/xlink" x="0px" y="0px"
	 viewBox="0 0 217.53 224.05" style="enable-background:new 0 0 217.53 224.05;" xml:space="preserve">
<style type="text/css">
	.st0{fill:#6B3812;}
</style>
<g>
	<path class="st0" d="M92.36,146.14c-5.6,1.95-10.15,3.76-14.82,5.11c-13.41,3.87-22.86,12.25-28.94,24.68
		c-2.36,4.81-4.61,9.71-7.35,14.3c-6.81,11.37-17.44,16.81-30.25,18.16c-1.8,0.19-4.48-1.37-5.67-2.94
		c-6.23-8.25-6.63-17.41-3.08-26.85c8.77-23.36,39.16-44.75,64.15-45.1C76.54,133.35,85.33,136.35,92.36,146.14z"/>
	<path class="st0" d="M66.46,2.4c-0.89,5.58-1.36,10.24-2.41,14.76c-3.69,15.88,0.39,29.77,10.53,42.09
		c10.48,12.74,14.06,26.69,8.52,42.66c-1.33,3.84-3.4,5.4-7.37,5.7c-12.73,0.96-21.67-5.44-27.7-15.47
		C35.16,70.72,32.65,47.7,40.85,24.04C44.77,12.73,52.34,4.54,66.46,2.4z"/>
	<path class="st0" d="M192.45,80.04c-2.56,2.98-4.74,6.12-7.5,8.62c-12.53,11.39-17.43,25.5-16.12,42.23
		c0.47,5.94,0.47,12.07-0.46,17.94c-1.65,10.54-8.12,18.33-16.65,24.26c-1.63,1.14-4.97,1.16-6.92,0.32
		c-9.83-4.25-14.92-12.56-15.44-22.74c-1.49-29.31,10.32-52.55,34.3-69.27C172.67,75.14,183.2,75.08,192.45,80.04z"/>
	<path class="st0" d="M90.44,104.12c1.01-5.04,1.67-8.81,2.52-12.55c2.65-11.66,0.89-22.67-7.5-31.22
		c-15.69-16-16.91-34.62-12.34-55.01c1.09-4.87,3.26-5.77,7.5-5.18c9.29,1.29,16.6,6.11,21.87,13.47
		c16.06,22.46,18.37,46.65,7.42,71.87C106.27,93.89,100.15,100.4,90.44,104.12z"/>
	<path class="st0" d="M156.88,177.8c3.96-3.43,6.74-5.7,9.37-8.14c9.92-9.2,13.85-20.54,11.17-33.78c-4.44-22,6.5-37.54,21.31-51.38
		c1.1-1.03,4.93-0.62,6.45,0.52c9.43,7.02,12.58,17.36,12.33,28.38c-0.58,25.27-11.39,45.4-32.58,59.49
		C177.2,178.02,168.56,180.19,156.88,177.8z"/>
	<path class="st0" d="M14.68,215.47c5.34-1.55,9.66-2.72,13.92-4.06c11.22-3.51,19.22-10.75,22.57-21.97
		c6.57-21.97,23.47-31.15,43.68-36.34c1.57-0.4,4.83,1.49,5.65,3.14c4.05,8.19,3.21,16.7,0.11,25c-8.93,23.9-36.66,43-62.17,42.8
		C29.94,223.98,21.87,222.34,14.68,215.47z"/>
</g>
</svg>
